<svg data-v-423bf9ae="" xmlns="http://www.w3.org/2000/svg" viewBox="0 0 615 90" class="iconLeft"><!----><!----><!----><g data-v-423bf9ae="" id="73e55292-12df-4088-b326-b551bc90f89d" fill="white" transform="matrix(4.2283302189378364,0,0,4.2283302189378364,127.3255713305617,3.6257909922730676)"><path d="M-0.05 16.88L-0.55 16.08Q0.08 15.67 0.46 15.24Q0.84 14.81 1.05 14.32Q1.26 13.83 1.33 13.28Q1.39 12.72 1.39 12.07L1.39 12.07L1.39 3.63L3.10 3.63L3.10 11.59Q3.10 12.48 2.95 13.25Q2.80 14.02 2.44 14.68Q2.08 15.35 1.48 15.90Q0.88 16.45-0.05 16.88L-0.05 16.88ZM9.56 12.58L9.56 12.58Q9.38 12.73 9.13 12.94Q8.88 13.15 8.58 13.33Q8.27 13.52 7.91 13.65Q7.55 13.78 7.16 13.78L7.16 13.78Q6.75 13.78 6.41 13.63Q6.06 13.49 5.81 13.22Q5.55 12.96 5.40 12.60Q5.26 12.23 5.26 11.79L5.26 11.79Q5.26 11.32 5.44 10.88Q5.63 10.43 6.07 10.08Q6.51 9.73 7.24 9.52Q7.96 9.30 9.03 9.30L9.03 9.30L9.53 9.30L9.53 8.74Q9.53 8.44 9.43 8.20Q9.32 7.96 9.14 7.79Q8.96 7.62 8.70 7.53Q8.44 7.44 8.13 7.44L8.13 7.44Q7.88 7.44 7.60 7.50Q7.32 7.56 7.05 7.66Q6.77 7.77 6.51 7.91Q6.25 8.05 6.05 8.21L6.05 8.21L5.93 8.14L5.61 6.99Q6.44 6.56 7.15 6.41Q7.86 6.26 8.48 6.26L8.48 6.26Q9.13 6.26 9.63 6.39Q10.13 6.52 10.48 6.79Q10.83 7.06 11.01 7.48Q11.19 7.89 11.19 8.46L11.19 8.46L11.19 11.81Q11.19 11.91 11.21 12.03Q11.22 12.15 11.28 12.26Q11.33 12.37 11.43 12.45Q11.53 12.52 11.69 12.52L11.69 12.52Q11.79 12.52 11.92 12.50Q12.06 12.47 12.20 12.41L12.20 12.41L12.20 13.23Q11.83 13.48 11.46 13.63Q11.09 13.78 10.75 13.78L10.75 13.78Q10.47 13.78 10.27 13.68Q10.08 13.58 9.94 13.41Q9.80 13.24 9.71 13.03Q9.62 12.81 9.56 12.58ZM9.53 11.70L9.53 10.11L9.10 10.11Q8.39 10.11 7.95 10.21Q7.52 10.31 7.28 10.48Q7.04 10.66 6.96 10.89Q6.88 11.12 6.88 11.38L6.88 11.38Q6.88 11.66 6.97 11.87Q7.05 12.09 7.19 12.23Q7.33 12.37 7.52 12.45Q7.71 12.52 7.93 12.52L7.93 12.52Q8.09 12.52 8.27 12.49Q8.45 12.45 8.64 12.35Q8.84 12.26 9.06 12.10Q9.28 11.94 9.53 11.70L9.53 11.70ZM13.26 13.64L13.26 13.13L16.33 8.57L17.01 7.67L17.01 7.53L15.73 7.58L13.45 7.58L13.75 6.40L19.07 6.40L19.07 6.92L16.02 11.42L15.29 12.39L15.29 12.52L16.50 12.46L19.27 12.46L18.98 13.64L13.26 13.64ZM20.60 13.64L20.60 13.13L23.67 8.57L24.36 7.67L24.36 7.53L23.07 7.58L20.79 7.58L21.09 6.40L26.41 6.40L26.41 6.92L23.37 11.42L22.63 12.39L22.63 12.52L23.84 12.46L26.61 12.46L26.32 13.64L20.60 13.64ZM33.93 4.36L35.78 4.36L37.58 10.99L37.88 12.40L38.02 12.40L38.32 10.99L40.10 3.63L41.64 3.63L38.88 13.64L36.87 13.64L35.18 7.68L34.82 6.02L34.68 6.02L34.32 7.68L32.62 13.64L30.61 13.64L27.83 3.63L29.62 3.63L31.41 10.99L31.68 12.40L31.81 12.40L32.14 10.99L33.93 4.36ZM45.83 13.78L45.83 13.78Q44.98 13.78 44.33 13.49Q43.67 13.21 43.23 12.72Q42.79 12.23 42.56 11.59Q42.33 10.94 42.33 10.23L42.33 10.23Q42.33 9.40 42.62 8.68Q42.92 7.96 43.45 7.42Q43.98 6.88 44.71 6.57Q45.44 6.26 46.31 6.26L46.31 6.26Q47.17 6.26 47.82 6.55Q48.48 6.84 48.92 7.33Q49.37 7.82 49.60 8.47Q49.83 9.11 49.83 9.83L49.83 9.83Q49.83 10.66 49.53 11.39Q49.23 12.11 48.70 12.64Q48.17 13.17 47.43 13.48Q46.70 13.78 45.83 13.78ZM46.12 12.60L46.12 12.60Q46.56 12.60 46.92 12.42Q47.28 12.24 47.54 11.91Q47.80 11.59 47.95 11.14Q48.09 10.68 48.09 10.14L48.09 10.14Q48.09 9.60 47.95 9.12Q47.81 8.63 47.54 8.26Q47.28 7.89 46.89 7.67Q46.51 7.44 46.03 7.44L46.03 7.44Q45.58 7.44 45.22 7.63Q44.86 7.81 44.60 8.14Q44.34 8.47 44.20 8.92Q44.06 9.38 44.06 9.92L44.06 9.92Q44.06 10.46 44.20 10.94Q44.34 11.43 44.60 11.80Q44.87 12.17 45.25 12.38Q45.64 12.60 46.12 12.60ZM51.67 13.64L51.67 6.40L53.01 6.40L53.25 8.56Q53.34 8.38 53.44 8.19Q53.55 8.00 53.65 7.83Q53.75 7.66 53.84 7.51Q53.93 7.37 53.99 7.27L53.99 7.27Q54.13 7.06 54.31 6.87Q54.50 6.69 54.71 6.55Q54.92 6.42 55.17 6.34Q55.41 6.26 55.70 6.26L55.70 6.26Q55.90 6.26 56.10 6.31Q56.29 6.36 56.43 6.46L56.43 6.46L56.25 7.98Q56.13 7.95 55.97 7.94Q55.80 7.93 55.67 7.93L55.67 7.93Q55.23 7.93 54.89 8.06Q54.55 8.18 54.27 8.40Q54.00 8.63 53.77 8.93Q53.54 9.23 53.33 9.58L53.33 9.58L53.33 13.64L51.67 13.64ZM57.98 13.64L57.98 2.69L59.64 2.69L59.64 13.64L57.98 13.64ZM64.74 13.64L62.74 13.64L60.04 9.82L62.86 6.42L64.53 6.42L61.69 9.62L64.74 13.64ZM65.75 13.30L66.05 12.06L66.17 11.98Q66.44 12.13 66.73 12.24Q67.02 12.36 67.31 12.44Q67.59 12.52 67.87 12.56Q68.14 12.60 68.38 12.60L68.38 12.60Q69.00 12.60 69.35 12.34Q69.71 12.08 69.71 11.68L69.71 11.68Q69.71 11.40 69.55 11.22Q69.38 11.05 69.12 10.92Q68.86 10.79 68.52 10.70Q68.19 10.60 67.84 10.50Q67.48 10.39 67.15 10.25Q66.81 10.12 66.55 9.91Q66.29 9.69 66.13 9.39Q65.97 9.08 65.97 8.64L65.97 8.64Q65.97 8.14 66.18 7.70Q66.40 7.27 66.80 6.95Q67.20 6.63 67.77 6.45Q68.34 6.26 69.05 6.26L69.05 6.26Q69.23 6.26 69.46 6.28Q69.70 6.29 69.96 6.32Q70.21 6.35 70.47 6.40Q70.73 6.45 70.96 6.52L70.96 6.52L70.66 7.75L70.51 7.83Q70.30 7.73 70.06 7.66Q69.83 7.58 69.59 7.54Q69.36 7.49 69.14 7.47Q68.91 7.44 68.74 7.44L68.74 7.44Q68.14 7.44 67.80 7.68Q67.46 7.92 67.46 8.33L67.46 8.33Q67.46 8.61 67.63 8.79Q67.79 8.97 68.06 9.10Q68.32 9.22 68.66 9.31Q69.00 9.41 69.35 9.51Q69.71 9.62 70.05 9.75Q70.39 9.89 70.65 10.10Q70.92 10.32 71.08 10.62Q71.24 10.93 71.24 11.38L71.24 11.38Q71.24 11.89 71.03 12.33Q70.81 12.77 70.40 13.09Q70 13.41 69.43 13.60Q68.87 13.78 68.17 13.78L68.17 13.78Q67.61 13.78 66.97 13.66Q66.34 13.54 65.75 13.30L65.75 13.30ZM80.47 10.99L82.85 3.63L84.44 3.63L80.85 13.64L78.94 13.64L75.35 3.63L77.19 3.63L79.58 10.99L79.96 12.40L80.09 12.40L80.47 10.99ZM86.02 13.64L86.02 6.40L87.68 6.40L87.68 13.64L86.02 13.64ZM86.85 4.97L86.85 4.97Q86.63 4.97 86.45 4.90Q86.27 4.83 86.14 4.70Q86.00 4.58 85.93 4.41Q85.86 4.24 85.86 4.04L85.86 4.04Q85.86 3.83 85.94 3.66Q86.02 3.49 86.16 3.35Q86.30 3.22 86.48 3.14Q86.67 3.07 86.89 3.07L86.89 3.07Q87.10 3.07 87.28 3.14Q87.46 3.22 87.59 3.35Q87.72 3.47 87.79 3.65Q87.87 3.82 87.87 4.02L87.87 4.02Q87.87 4.22 87.79 4.40Q87.71 4.57 87.57 4.70Q87.43 4.83 87.25 4.90Q87.06 4.97 86.85 4.97ZM89.52 13.30L89.82 12.06L89.94 11.98Q90.21 12.13 90.50 12.24Q90.79 12.36 91.08 12.44Q91.36 12.52 91.64 12.56Q91.91 12.60 92.15 12.60L92.15 12.60Q92.77 12.60 93.12 12.34Q93.47 12.08 93.47 11.68L93.47 11.68Q93.47 11.40 93.31 11.22Q93.15 11.05 92.89 10.92Q92.63 10.79 92.29 10.70Q91.96 10.60 91.60 10.50Q91.25 10.39 90.92 10.25Q90.58 10.12 90.32 9.91Q90.06 9.69 89.90 9.39Q89.74 9.08 89.74 8.64L89.74 8.64Q89.74 8.14 89.95 7.70Q90.17 7.27 90.57 6.95Q90.97 6.63 91.54 6.45Q92.11 6.26 92.82 6.26L92.82 6.26Q93.00 6.26 93.23 6.28Q93.47 6.29 93.72 6.32Q93.98 6.35 94.24 6.40Q94.50 6.45 94.73 6.52L94.73 6.52L94.42 7.75L94.27 7.83Q94.07 7.73 93.83 7.66Q93.60 7.58 93.36 7.54Q93.13 7.49 92.90 7.47Q92.68 7.44 92.51 7.44L92.51 7.44Q91.91 7.44 91.57 7.68Q91.23 7.92 91.23 8.33L91.23 8.33Q91.23 8.61 91.40 8.79Q91.56 8.97 91.82 9.10Q92.09 9.22 92.43 9.31Q92.77 9.41 93.12 9.51Q93.47 9.62 93.82 9.75Q94.16 9.89 94.42 10.10Q94.68 10.32 94.85 10.62Q95.01 10.93 95.01 11.38L95.01 11.38Q95.01 11.89 94.79 12.33Q94.58 12.77 94.17 13.09Q93.77 13.41 93.20 13.60Q92.63 13.78 91.94 13.78L91.94 13.78Q91.38 13.78 90.74 13.66Q90.10 13.54 89.52 13.30L89.52 13.30ZM96.84 11.23L96.84 6.40L98.49 6.40L98.49 10.97Q98.49 11.32 98.59 11.60Q98.68 11.89 98.85 12.09Q99.03 12.30 99.26 12.41Q99.50 12.52 99.79 12.52L99.79 12.52Q100.04 12.52 100.27 12.44Q100.51 12.36 100.73 12.23Q100.95 12.09 101.14 11.92Q101.34 11.74 101.52 11.55L101.52 11.55L101.52 6.40L103.17 6.40L103.17 13.64L101.83 13.64L101.59 12.42Q101.34 12.65 101.06 12.89Q100.77 13.13 100.45 13.33Q100.13 13.53 99.77 13.65Q99.41 13.78 99.02 13.78L99.02 13.78Q98.57 13.78 98.18 13.60Q97.78 13.43 97.48 13.10Q97.19 12.77 97.01 12.30Q96.84 11.83 96.84 11.23L96.84 11.23ZM109.37 12.58L109.37 12.58Q109.19 12.73 108.94 12.94Q108.69 13.15 108.39 13.33Q108.08 13.52 107.72 13.65Q107.37 13.78 106.97 13.78L106.97 13.78Q106.57 13.78 106.22 13.63Q105.88 13.49 105.62 13.22Q105.36 12.96 105.22 12.60Q105.07 12.23 105.07 11.79L105.07 11.79Q105.07 11.32 105.26 10.88Q105.44 10.43 105.89 10.08Q106.33 9.73 107.05 9.52Q107.78 9.30 108.84 9.30L108.84 9.30L109.34 9.30L109.34 8.74Q109.34 8.44 109.24 8.20Q109.14 7.96 108.95 7.79Q108.77 7.62 108.51 7.53Q108.25 7.44 107.94 7.44L107.94 7.44Q107.69 7.44 107.41 7.50Q107.13 7.56 106.86 7.66Q106.59 7.77 106.33 7.91Q106.07 8.05 105.86 8.21L105.86 8.21L105.74 8.14L105.42 6.99Q106.25 6.56 106.96 6.41Q107.67 6.26 108.29 6.26L108.29 6.26Q108.94 6.26 109.44 6.39Q109.94 6.52 110.29 6.79Q110.64 7.06 110.82 7.48Q111.00 7.89 111.00 8.46L111.00 8.46L111.00 11.81Q111.00 11.91 111.02 12.03Q111.04 12.15 111.09 12.26Q111.14 12.37 111.24 12.45Q111.34 12.52 111.50 12.52L111.50 12.52Q111.60 12.52 111.73 12.50Q111.87 12.47 112.01 12.41L112.01 12.41L112.01 13.23Q111.64 13.48 111.27 13.63Q110.91 13.78 110.56 13.78L110.56 13.78Q110.28 13.78 110.09 13.68Q109.89 13.58 109.75 13.41Q109.61 13.24 109.52 13.03Q109.43 12.81 109.37 12.58ZM109.34 11.70L109.34 10.11L108.91 10.11Q108.20 10.11 107.77 10.21Q107.33 10.31 107.09 10.48Q106.85 10.66 106.77 10.89Q106.70 11.12 106.70 11.38L106.70 11.38Q106.70 11.66 106.78 11.87Q106.86 12.09 107.00 12.23Q107.14 12.37 107.33 12.45Q107.52 12.52 107.74 12.52L107.74 12.52Q107.91 12.52 108.08 12.49Q108.26 12.45 108.46 12.35Q108.65 12.26 108.87 12.10Q109.09 11.94 109.34 11.70L109.34 11.70ZM113.48 13.64L113.48 2.69L115.14 2.69L115.14 13.64L113.48 13.64Z"></path></g><!----><g data-v-423bf9ae="" id="66eab9cb-3454-42b4-bead-6561797a7821" transform="matrix(2.039706256902273,0,0,2.039706256902273,-48.72430927511728,-49.224313165548224)" stroke="none" fill="white"><path d="M61.031 50c0-6.092-4.939-11.031-11.031-11.031-6.092 0-11.031 4.939-11.031 11.031 0 6.092 4.939 11.031 11.031 11.031 6.092 0 11.031-4.939 11.031-11.031zM50 53.677a3.677 3.677 0 110-7.353 3.677 3.677 0 010 7.353z"></path><circle cx="35.292" cy="64.708" r="3.677"></circle><path d="M72.062 46.323A3.677 3.677 0 0068.385 50v11.031H57.354a3.677 3.677 0 100 7.354h14.708a3.677 3.677 0 003.677-3.677V50a3.677 3.677 0 00-3.677-3.677zM31.615 38.969h11.031a3.677 3.677 0 003.677-3.677v-3.677H50a3.677 3.677 0 100-7.354h-7.354a3.677 3.677 0 00-3.677 3.677v3.677H27.938a3.677 3.677 0 00-3.677 3.677V50a3.677 3.677 0 107.354 0V38.969z"></path></g><!----></svg>